<?xml version="1.0" encoding="UTF-8" standalone="no"?>
<!-- Created with Inkscape (http://www.inkscape.org/) -->

<svg
   xmlns:dc="http://purl.org/dc/elements/1.1/"
   xmlns:cc="http://creativecommons.org/ns#"
   xmlns:rdf="http://www.w3.org/1999/02/22-rdf-syntax-ns#"
   xmlns:svg="http://www.w3.org/2000/svg"
   xmlns="http://www.w3.org/2000/svg"
   version="1.1"
   width="1421.5125"
   height="1678.6548"
   id="svg2">
  <defs
     id="defs4" />
  <metadata
     id="metadata7">
    <rdf:RDF>
      <cc:Work
         rdf:about="">
        <dc:format>image/svg+xml</dc:format>
        <dc:type
           rdf:resource="http://purl.org/dc/dcmitype/StillImage" />
        <dc:title></dc:title>
      </cc:Work>
    </rdf:RDF>
  </metadata>
  <g
     transform="translate(201.83816,141.13206)"
     id="layer1">
    <g
       transform="matrix(0.62732237,0,0,1.2765436,193.46456,-105.39527)"
       id="g3069">
      <path
         d="m -630.14288,629.50504 c 0,-219.16667 0,-438.33333 0,-657.499999 755.33333,0 1510.66665,0 2265.99998,0 0,438.333319 0,876.666639 0,1314.999959 -755.33333,0 -1510.66665,0 -2265.99998,0 0,-219.1667 0,-438.33331 0,-657.49996 z"
         id="path3085"
         style="fill:#fdfdfd" />
      <path
         d="m 343.85712,1198.5541 c -47.40176,-33.6026 -91.5392,-95.1807 -80.95525,-154.4302 47.67256,24.3553 -26.81303,-37.3526 17.07034,-63.86916 37.60911,-86.91562 102.14089,-159.69864 141.89051,-244.96646 63.097,-105.15375 -95.59018,-125.87191 -110.85805,-28.93704 42.12714,53.82507 -69.82701,112.18276 -46.02981,36.99787 32.82305,-71.54948 34.46363,-152.11601 35.96454,-230.84407 -32.07544,-70.57372 99.58798,-130.41229 60.91772,-29.91656 -18.9932,39.58487 -60.98598,212.99936 9.927,109.5342 33.35629,-27.63828 65.33511,-183.73941 97.0072,-97.82738 -9.86467,49.72758 -132.54749,133.06411 -21.74027,123.00872 59.86869,27.15215 -13.96098,111.44027 -26.64513,157.70102 -29.30415,60.67721 -76.27631,112.54779 -88.55472,180.23051 -32.68713,59.33125 -7.12414,137.83705 9.35447,200.26945 -2.8645,12.2326 30.22763,46.7221 2.65145,43.0491 z m 613.3797,-86.2991 c -41.60765,-55.5838 -26.84246,-124.14489 -33.8063,-188.64402 20.0491,-63.15459 38.0715,-142.6882 47.4236,-217.33289 -16.15351,-26.57861 -102.7629,44.06899 -66.9136,-20.16112 87.77808,-8.78441 67.40524,-83.24412 71.16404,-146.29419 6.82886,-78.33842 -2.27973,-153.92679 7.08229,-231.09255 12.92682,-62.17295 26.99155,-180.0631 116.48645,-158.40914 44.1138,45.07876 5.543,149.24043 3.781,213.52726 -1.8436,68.28089 -29.6889,165.6692 -7.2734,211.01045 26.5282,-8.92606 31.8413,-60.56125 30.8069,-85.90258 44.6177,-97.26712 129.4218,-21.96864 106.8207,59.04882 13.718,75.75675 -33.2312,137.83429 -95.2682,176.57346 -45.4568,20.80363 -34.2572,-107.57555 -105.5823,-54.41328 -72.23036,39.93476 -24.2576,156.53919 -56.86064,227.65337 -23.74094,67.4534 7.64751,161.75631 -17.86054,214.43641 l 0,0 z M 1149.0197,688.85657 c -4.3729,-22.1145 -15.2478,15.93236 0,0 z m -6.889,-24.10153 c 59.6952,-45.62589 65.4174,-129.94845 48.6837,-194.75 -48.4148,45.66527 -55.2229,123.09691 -62.4399,186.75 -5.9435,8.27946 10.8001,14.91297 13.7562,8 z m -112.8896,-19.92252 c 63.6769,6.84854 77.2757,-57.15821 24.4864,-72.16371 -17.8151,-24.87323 -38.3574,3.63222 -17.3704,-44.25851 21.734,-79.50757 19.1467,-161.64423 25.9055,-243.24753 25.7419,-38.22247 16.1286,-152.41939 -24.3681,-62.15773 -15.8641,72.90409 -26.912,150.32571 -22.4547,225.70067 12.2655,50.27833 -50.09978,186.24316 13.8013,196.12681 z M 1207.408,633.5281 c 23.2384,-47.7649 -43.1857,11.19257 0,0 z m 10.2343,-71.24996 c 24.2242,-70.38939 -38.6997,-70.78043 0,0 z m -421.62648,416.8741 c -20.18344,-42.53325 -25.24439,-85.04209 -42.5636,-106.29519 -8.59474,-61.39497 22.57023,-119.12293 30.96305,-176.99582 55.32554,-5.29761 51.09595,-117.18094 -8.31935,-71.52461 -59.49866,9.1447 -80.73939,56.39664 -76.7576,119.87933 11.43615,51.08631 -79.31848,32.80411 -35.4812,-21.77055 17.98524,-73.74934 34.90555,-157.33782 13.69124,-228.84274 -23.62804,-37.06988 110.38195,-54.42351 152.9308,-49.42911 93.63128,39.94014 -35.26564,117.61975 21.30055,166.12073 19.06633,68.916 -64.13551,120.44794 -47.60749,192.67741 -13.39514,7.80882 31.00816,100.5368 8.1327,143.29072 2.13893,4.32655 -5.27548,53.09061 -16.2891,32.88983 z m -62.1049,-381.77243 c 37.32184,-25.07165 85.37999,-52.64746 74.4473,-110.90103 -26.1692,-15.26633 -113.59944,20.85901 -88.5011,64.31278 9.38242,10.32386 -11.5191,61.817 14.0538,46.58825 z m -921.0538,248.45769 c -81.76697,-31.89064 8.77963,-96.19486 10.46774,-154.3398 75.50764,-89.42988 -134.586,-43.467 -81.81939,-107.81939 18.51649,-20.30086 129.03544,48.84213 124.16421,-38.9352 30.96518,-102.20671 48.995244,-207.71057 60.117626,-313.77325 10.681568,-45.24025 -29.944096,-169.337417 29.580394,-154.602469 23.370426,71.084589 55.095827,165.358539 7.72405,233.698679 -2.003511,71.22541 -41.361399,144.32154 -34.21468,219.63811 -33.07992,70.52048 15.413699,67.14841 59.98003,47.92195 -3.456541,45.05357 -37.360509,66.16276 -73.18066,51.63836 -33.51996,53.6722 3.926723,169.54617 -72.81932,185.4889 -10.23925,7.82315 -13.11702,37.06983 -30,31.08411 z m -184.46302,-4.03177 c -40.54291,-26.85136 -4.53481,-144.21991 58.5963,-117.32584 -1.83474,19.36381 5.36491,14.96418 22.29316,34.28525 -43.17886,19.11352 -18.68657,50.92756 -55.90757,76.49604 -7.68441,1.34651 -16.37152,10.60739 -24.98189,6.54455 z m 32.02011,-27.4299 c 9.17984,-12.77581 -25.80157,12.19853 0,0 z m 279.77165,6.19414 c 9.73151,-56.8351 44.35914,-127.27504 48.35101,-193.1243 0.801,-12.35736 49.560636,-144.23759 48.51617,-54.0144 -18.025513,70.9467 7.65482,171.15988 -60.47954,213.85241 -17.907279,2.15947 -17.587653,39.0747 -36.38764,33.28629 z m 219.02359,-0.55824 C 91.943113,796.29869 130.4459,727.67977 157.89704,680.42915 170.7846,638.00037 241.33975,551.68591 210.73155,524.46381 164.27004,576.81513 92.589898,628.31204 98.845869,707.19582 83.438419,738.3963 41.135279,852.02331 41.44116,759.50504 56.178759,677.46258 80.657201,598.70398 92.14171,516.37132 c -8.803508,-81.31848 64.59753,-28.12582 50.95034,22.08572 34.7175,-21.42226 131.14508,-120.94198 107.17534,-15.11055 -36.88893,73.89919 -56.33461,157.43684 -52.41046,239.57997 -0.30927,27.50952 1.25522,69.34969 -38.64748,57.08527 z M -313.64288,797.2328 c -9.56887,-25.68988 38.92443,-20.86333 0,0 z m 780.5206,-24.31623 c -44.60528,-26.42087 72.1283,-37.06204 32.7758,-87.9766 -9.12111,-65.53846 40.05571,-149.6195 7.7022,-202.10901 -20.6137,-26.94365 25.62558,-87.20485 47.9517,-24.27251 32.68794,19.735 138.11652,146.9159 49.9549,85.19659 -67.04566,-84.0644 -84.05562,113.07276 7.58614,77.01611 38.98007,34.18601 -46.91455,32.6819 -65.31914,4.72661 -27.76638,36.1042 -50.67546,126.46863 23.9378,72.40424 101.80413,29.38702 -41.40137,53.09028 -84.178,73.51169 l -20.4109,1.50288 -5e-4,0 z m 873.66848,-55.33935 c -90.2939,6.28455 -124.2915,-70.66282 -88.6998,-146.07218 11.1765,-52.29153 54.8022,-184.65714 90.6174,-68.10327 31.3632,53.53131 66.4982,130.99736 22.9713,186.53853 -5.6971,8.49798 -9.0457,34.0899 -24.8889,27.63692 z m -16.32,-30.22281 c 65.9975,-26.19463 7.4185,-155.33964 -29.9711,-162.00634 -11.112,43.97257 -58.1205,174.40437 29.9711,162.00634 z m 142.9989,19.40063 c -66.8502,-76.42013 -21.7948,-185.87367 -36.2466,-276.52359 -10.7778,-44.70134 -1.4623,-100.24984 -6.5581,-152.37194 33.797,-29.75838 -24.9927,-157.31144 46.9936,-143.35447 34.243,46.69843 2.9754,161.0598 14.7658,232.45039 1.6111,81.00019 -11.2929,160.03868 -17.3735,241.13037 3.6843,72.73842 58.5866,8.97288 66.0775,-5.03716 -13.4189,34.1767 -13.2631,114.4228 -67.6587,103.7064 z M 1111.8571,520.9836 c -24.9423,-25.69563 26.9471,-10.95613 0,0 z M 22.18586,509.54728 c -1.60554,-35.78069 9.580336,-171.96067 56.133594,-138.1289 -21.515172,37.9372 0.179482,127.67926 -56.133594,138.1289 z M 1423.8461,236.75504 c -19.9723,-85.97201 26.9606,6.5139 0,0 z"
         id="path3083"
         style="fill:#d2d2d2" />
      <path
         d="m 342.85681,1197.2655 c -45.79121,-34.7787 -88.25374,-91.9746 -80.74667,-152.0759 42.39169,21.1549 -20.36229,-50.45501 26.74695,-82.53178 37.9376,-80.58682 99.16332,-148.48952 134.2156,-229.84326 53.01333,-88.1342 -64.16885,-125.74815 -103.86941,-51.81001 -16.59419,35.84639 10.8124,120.96536 -58.85181,92.9827 25.39002,-84.80312 45.51902,-170.44583 41.49202,-261.48221 -30.77057,-55.44486 79.92327,-134.76911 63.01979,-43.27417 -8.40964,45.13105 -55.2632,134.22753 -25.07847,160.02417 57.65645,-37.91766 64.98001,-125.19365 109.21781,-164.79944 59.65743,37.23041 -47.43358,102.61269 -56.3041,146.9032 92.87709,-16.35451 86.23598,60.7135 47.7689,116.72217 -25.98519,81.29798 -93.96069,143.56152 -110.01491,228.7883 -34.00769,60.76543 -3.72909,141.16533 11.45786,205.38363 -2.36704,9.0249 28.54417,40.886 0.94644,35.0126 z m 615.20031,-84.4605 c -39.53449,-55.7449 -28.17215,-122.39752 -33.2871,-186.61459 15.11247,-66.47633 42.95755,-149.07213 45.57935,-227.07687 -31.5188,5.34477 -113.65285,29.97109 -53.24835,-19.80914 91.58218,-5.83232 44.08607,-99.91596 58.7102,-157.79936 11.98035,-78.87053 -7.62744,-156.32857 13.0456,-233.78557 5.38938,-56.85479 31.57328,-156.93336 108.51848,-137.25762 46.2538,43.96727 5.6535,148.86223 4.2053,213.32493 1.1315,63.69319 -31.4951,162.01727 -7.1868,204.56569 20.4685,20.01501 39.5446,-97.89853 34.9629,-75.75807 14.9889,-62.89814 105.7658,-67.86429 101.2713,12.79192 5.0626,69.37794 7.6863,137.53549 -49.7388,185.71992 -40.8306,51.28296 -81.6244,40.72421 -89.8569,-26.1012 -90.2364,-26.48063 -109.44888,67.85705 -104.48594,138.16655 -4.16793,84.78372 -35.86483,168.49038 -17.73397,254.33061 -10.15375,13.608 6.63944,52.0899 -10.75527,55.3028 z M 1149.7304,689.47892 c -3.4878,-27.43359 -21.1261,17.6892 0,0 z m -4.422,-27.22388 c 56.7104,-37.83905 72.1427,-158.79672 36.6843,-187.98553 -28.5628,41.614 -79.743,173.10103 -36.6843,187.98553 l 0,0 z m -114.9513,-16.83003 c 55.4422,9.56312 83.2347,-59.7503 27.6175,-66.84736 -18.8158,-33.41899 -42.4201,-2.06984 -20.018,-52.44973 20.7873,-74.20913 17.3707,-151.31339 24.5866,-227.12288 15.8871,-36.65984 26.8128,-170.75733 -24.6412,-79.33947 -14.7054,70.47759 -29.2229,145.7708 -22.0812,219.04807 8.8295,61.35188 -47.76096,182.93903 14.5367,206.71137 l -4e-4,0 z m 172.4403,-8.89892 c 45.2542,-39.45513 -40.0068,-15.04131 0,0 z m 15.4194,-73.57079 c 21.8308,-50.76097 -30.123,-74.692 -8.9563,-7.21824 -1.5868,3.90969 4.4705,13.38306 8.9563,7.21824 z M 798.08462,981.25414 C 784.06919,940.81769 756.673,857.4053 759.73142,877.81436 c -21.47372,-57.11492 18.3086,-125.06964 26.5667,-181.80932 64.78752,-18.30734 39.17013,-122.32302 -27.1813,-68.69464 -54.89704,14.72745 -66.16597,76.43297 -58.9087,135.10511 -81.37989,49.37215 -16.22722,-82.57752 -17.6628,-127.03835 11.80996,-52.22076 2.67776,-130.44535 -11.38215,-158.16177 56.68931,-20.04617 150.66046,-66.81245 191.57225,1.78965 2.73455,55.01965 -53.54863,104.02709 -5.9326,157.88384 -30.10472,50.0063 -44.10026,129.02578 -64.9074,167.04456 35.95349,34.82315 22.07692,118.67493 15.479,170.0716 l -5.4499,8.9639 -3.8399,-1.7148 0,0 z m -63.7464,-383.22979 c 38.97282,-25.55999 89.32897,-55.86005 73.35223,-115.85097 -29.19956,-2.93667 -114.75786,19.38042 -88.83333,68.3642 9.04218,10.12476 -11.08732,63.77883 15.4811,47.48677 z m -923.4811,246.48069 c -75.90019,-30.42171 3.21052,-81.30173 6.63986,-133.33913 57.40133,-80.89858 -26.62624,-83.86186 -86.86302,-102.55495 4.03315,-69.51756 49.33883,-1.03391 93.52049,-19.41718 72.43654,-11.10136 51.43603,-140.21663 79.738876,-199.13666 14.823445,-74.44809 22.323538,-149.1075 24.495754,-224.74991 -29.53631,-52.01528 30.133353,-149.470673 36.40867,-42.80217 28.3186416,54.74107 32.5202485,139.97939 -4.702349,190.98549 2.468094,64.2073 -34.048826,125.35858 -32.363461,191.75392 -16.273758,66.86035 -9.396617,111.63042 59.870846,73.43625 -3.097059,50.94695 -39.268021,56.82834 -73.458796,50.79522 -32.83702,53.12301 5.283791,170.78246 -71.69372,185.29722 -12.163,7.72967 -12.57799,37.7467 -31.59315,29.7319 z m -183.44113,-4.0318 c -38.37931,-27.70737 -1.71176,-139.76839 58.55664,-115.4682 -1.24896,16.84063 3.01805,16.27625 22.88449,32.87622 -41.80891,8.2668 -22.56648,76.65847 -76.32117,83.99552 l -5.11996,-1.40354 0,0 z m 34.83187,-26.2388 c 12.81271,-16.41825 -29.44927,14.29402 0,0 z m -10.97419,-39.87253 c 1.33246,-6.99502 -5.2798,5.6679 0,0 z m 289.04873,45.69161 c 9.372799,-55.71727 43.991699,-124.48168 49.24924,-188.82728 -2.860897,-16.58483 52.441306,-146.4477 46.26611,-56.44452 -16.451994,67.92576 4.619537,160.38514 -51.79826,206.72332 -24.848282,3.18149 -22.220825,38.32421 -43.71709,38.54848 z m 215.53472,-3.54848 C 91.852877,792.84982 134.24036,728.93998 157.22225,683.5929 181.19607,631.47271 214.84233,581.34447 223.74036,524.52614 173.81931,548.02021 122.82258,609.23646 100.74557,666.86571 96.096998,706.29906 75.222006,787.6574 45.431019,795.40685 35.133279,720.30658 75.994801,645.02639 82.13774,569.38671 c 7.556077,-37.15324 16.59549,-149.10515 55.68935,-65.70014 -8.61257,108.93442 121.89401,-111.6574 114.14643,3.82411 -23.22453,68.13788 -51.79128,135.87724 -56.57398,209.73617 1.16918,30.44126 17.55,124.99185 -39.54242,99.25819 z m -480,-8.37756 c 7.38444,-13.77824 1.68672,8.1769 0,0 z m 11.84236,-11.44695 c -11.25249,-20.72732 34.82226,-23.59161 0,0 z m 777.51674,-25.56255 c -26.22883,-26.36433 67.62015,-38.7014 35.9948,-90.61294 -10.54236,-69.49366 47.71318,-164.16701 -1.8381,-212.09333 26.00066,-94.2938 84.73189,39.73561 128.37536,65.25431 55.93705,93.72771 -93.16248,-83.02669 -74.14226,23.15849 -60.28555,83.64976 117.9897,37.91393 54.5206,95.63061 -58.06211,-62.87811 -94.03836,6.15073 -89.8152,64.14015 24.54369,-21.09495 113.84687,-22.91162 84.38177,18.07916 -48.24547,-4.77106 -89.42167,42.84388 -137.47697,36.44355 z m 875.19098,-54.23929 c -75.4551,4.3697 -126.8205,-53.61946 -91.3931,-124.91196 15.2553,-32.89921 30.2429,-185.313 78.7946,-116.96169 30.1435,56.54999 70.3129,122.36157 52.5509,188.40046 -13.7168,15.2295 -17.2332,52.87353 -39.9524,53.47319 z m -24.5501,-27.98675 c 84.1835,-23.61758 10.6048,-116.87316 -5.0941,-167.73382 -40.6058,18.17908 -70.4776,167.70637 5.0941,167.73382 l 0,0 z m 150.9073,16.44521 c -65.8278,-75.53917 -19.9181,-185.07776 -34.7362,-274.62495 -11.6883,-44.95465 -0.087,-99.40574 -7.1092,-152.67936 33.9078,-23.88575 -21.1669,-154.32676 38.7594,-138.13994 45.4503,10.19736 9.1601,133.52509 20.6406,187.01584 7.9058,82.69655 -8.39,161.67925 -11.935,243.66963 -16.5568,52.63969 3.0917,117.80955 43.2941,40.18452 37.3813,-31.88705 -3.9588,122.39382 -48.9137,94.57426 z M 1111.0082,519.02393 c -10.2497,-20.64914 18.5926,-1.047 0,0 z M 21.95528,508.7403 c 3.441292,-47.34472 4.778424,-111.77185 40.12417,-149.9597 27.29178,22.23771 -1.767671,114.15294 -25.9547,147.79869 l -8.747763,3.18355 -5.421707,-1.02254 0,0 z M 1425.2124,237.15604 c -19.1686,-54.56686 19.5094,-15.67573 0,0 z"
         id="path3081"
         style="fill:#aeaeae" />
      <path
         d="M 343.35832,1197.0069 C 298.7432,1176.8578 226.89791,1045.887 281.90619,1053.7786 252.19522,1012.4824 295.88881,951.04441 323.29297,901.36549 361.90888,822.60746 451.1497,751.09315 427.79072,655.17511 367.02511,603.41264 282.71127,691.30609 311.75415,761.98211 214.22692,821.82543 303.77813,685.03642 290.911,642.30398 319.24582,572.87075 276.76869,488.53206 328.50322,429.2246 c 89.77148,0.52019 -13.0203,127.13701 -0.26723,182.33089 7.09295,88.78301 132.15741,-182.88404 92.06883,-103.97777 21.3671,-87.86409 77.27371,-0.78597 16.51005,40.13805 -52.63353,44.99577 -53.2525,78.98708 21.92884,73.58955 29.45763,58.38602 -41.48646,139.57881 -64.07462,200.78223 -41.08352,49.87697 -56.13088,112.29835 -81.82256,169.6456 -0.86984,67.76565 29.51002,157.59875 30.51179,205.27375 z m 613.0295,-88.5213 c -43.25574,-63.7664 -22.20034,-142.63371 -32.8491,-214.25595 31.18261,-45.38923 58.84444,-160.3382 32.7001,-197.95748 -40.60892,41.89525 -93.61194,1.94851 -30.12888,-20.55518 92.41526,-17.68394 28.61983,-135.48692 51.02273,-201.21415 10.98267,-71.46827 -8.15662,-143.67237 17.70235,-213.9978 -12.94559,-64.21721 92.96478,-164.763821 125.10108,-81.34619 -10.927,82.23661 -9.2173,165.08317 -24.8715,246.96806 -3.9825,44.61301 -24.082,145.98612 6.4756,144.30425 38.5865,-24.04948 8.1148,-89.2997 53.5666,-111.1525 90.6487,-62.84828 75.7948,103.4643 75.5787,158.31088 -20.2021,42.48907 -108.152,168.47964 -131.4919,70.28364 -32.9841,-72.26756 -142.71165,13.65783 -108.01816,83.48399 -5.07946,95.44961 -41.86473,190.16186 -22.49724,286.68063 -9.3908,6.6702 3.61033,70.8965 -12.29038,50.4478 z M 1148.783,692.59427 c 8.5257,-32.78757 -29.8968,7.18395 0,0 z m -0.6759,-33.01537 c 56.238,-35.19589 69.9673,-162.04103 33.7688,-185.59312 -38.7789,50.8527 -48.8698,119.82225 -55.1173,182.02801 -4.4783,13.45445 19.398,19.05424 21.3485,3.56511 z m -113.6099,-15.524 c 64.5188,14.81743 71.2201,-64.57367 20.6582,-71.49773 -13.9909,-31.78278 -44.1169,12.8911 -17.3492,-43.73019 22.4234,-75.18004 18.09,-153.61407 25.645,-230.66664 19.3209,-39.60634 22.4814,-168.02078 -26.4961,-77.00697 -19.2698,77.71191 -25.0572,160.46272 -25.143,240.35167 13.4015,42.27705 -49.58934,196.62027 22.6851,182.54986 z m 171.0403,-8.13718 c 35.2908,-55.32476 -44.6611,3.76207 0,0 z m 12.1921,-72.34674 c 24.7036,-50.11075 -30.0742,-80.38178 -9.0422,-8.1992 -2.3039,4.74543 4.5085,12.80944 9.0422,8.1992 z M 799.00092,981.67834 c -23.53629,-59.47006 -39.42409,-85.82674 -44.953,-137.09287 9.41278,-64.31993 17.42855,-132.05884 59.8089,-171.81529 52.69605,-78.83867 -53.79042,-60.55813 -85,-28.84552 -59.21677,19.25 10.32203,144.52157 -70.3384,130.47102 9.35009,-78.62178 36.12095,-160.18487 29.7671,-241.63522 -23.23327,-47.7355 -24.51839,-70.91864 43.353,-75.66434 76.72024,-49.74756 185.05783,24.59519 106.0696,102.89411 1.43353,47.33174 37.91041,103.73849 -15.8612,150.55984 -27.91878,77.7214 -27.74402,91.36512 -8.8527,163.11211 -0.95803,32.1217 6.50815,84.67364 -13.9933,108.01616 z m -65.0774,-382.76659 c 39.31249,-25.49825 92.79903,-58.78747 72.67115,-118.51247 -39.48143,1.3247 -119.06506,25.69357 -86.23755,84.60576 5.48821,9.47752 -10.63424,47.69727 13.5664,33.90671 z m -923.0664,245.05179 c -78.43213,-32.85804 14.15915,-88.79169 9.94025,-146.25909 87.310884,-93.70409 -123.06989,-51.91289 -79.24766,-111.84103 17.69917,-24.51477 130.93347,49.83588 124.97806,-39.85838 30.5293,-104.54482 51.968692,-212.32265 59.75339,-320.98547 9.57946,-43.11268 -26.026462,-166.430498 31.15597,-145.203769 21.076144,68.946829 45.3112962,155.039089 10.00122,223.158359 -11.746753,57.07547 -31.687125,122.82619 -38.70746,185.53088 -22.27904,77.51275 -1.63885,123.32497 56.02385,95.09265 4.11679,82.21756 -84.249329,6.14082 -83.41254,83.40735 0.220892,76.30839 -20.16109,142.87785 -83.31181,178.89741 l -7.17327,-1.93891 0,0 z m -185,-4.54181 c -31.1674,-30.42142 -2.13573,-137.3882 60.08752,-113.95333 -8.82598,20.2985 17.33461,14.627 20.79322,41.15351 -51.08573,-6.49496 -16.82361,86.72469 -80.88074,72.79982 z m 33.91144,-22.25121 c 32.45816,-16.30317 -32.51712,3.43067 0,0 z m -8.07639,-44.68563 c -0.6002,-7.95293 -4.75217,10.5653 0,0 z m 0.31495,-4.97985 c -2.71084,-4.64483 -2.71084,4.64483 0,0 z m 287.11243,50.97126 c 14.137316,-59.60276 56.4912788,-133.68737 44.73757,-198.43911 25.4836821,-14.1803 50.575309,-133.9188 50.7578,-43.71516 -17.143765,72.901 10.416479,180.57808 -69.76928,218.68301 -9.212932,5.30972 -10.349252,31.25356 -25.72609,23.47126 z m 218.23993,-1.45552 C 95.64557,794.9423 129.64964,730.68782 155.85712,687.9309 171.44349,639.46433 241.97151,556.33371 210.44696,523.06833 163.99338,576.27286 90.604211,628.10923 97.329892,707.75997 79.877164,733.54023 44.429253,856.45315 42.87695,759.75149 57.855075,677.32354 82.12312,598.37105 93.85712,515.38098 c -6.492236,-78.40285 60.14175,-24.18075 49.27515,24.50373 34.89386,-28.56706 138.82812,-118.51048 103.09046,-8.62782 -39.44618,75.47807 -53.38436,162.28563 -50.81043,246.24815 1.85308,26.121 -5.5457,52.3949 -38.05282,39.51574 z m -469.00236,-20.78105 c -7.81202,-23.71903 31.30084,-17.11256 0,0 z m 780.2458,-24.21256 c -37.90115,-25.40378 70.08978,-40.50046 33.5451,-93.02213 -15.85589,-67.44842 54.39956,-160.02885 -5.2909,-207.36013 26.5172,-100.22604 83.40716,33.31741 127.97989,59.21638 61.37518,100.36687 -91.08472,-83.04166 -71.96979,25.64375 -55.06923,81.18267 114.32521,43.75536 52.68679,95.18428 -57.79247,-63.83028 -94.2155,12.74407 -85.49329,66.23686 49.00818,-46.44133 141.33172,18.37663 40.6238,23.82666 -31.3739,9.3433 -58.37132,31.18541 -92.0816,30.27433 z m 870.94028,-56.0387 c -101.5914,8.47985 -115.9223,-83.72898 -82.394,-159.48343 13.2653,-52.65335 51.808,-159.78846 83.789,-53 31.7494,53.02741 65.6196,128.92206 24.4189,184.91111 -7.1807,9.45293 -8.477,33.87724 -25.8139,27.57232 z m -23.9484,-26.55761 c 80.3634,-17.56386 18.7652,-142.7062 -17.1901,-169.84748 -19.4548,43.32695 -62.5201,168.3669 17.1901,169.84748 z m 152.5832,17.08642 c -65.6328,-74.17209 -20.8488,-180.28394 -36.2357,-268.19332 -8.8535,-51.9311 -3.5299,-110.22512 -4.6425,-169.09498 22.5846,-26.57507 -4.5251,-86.45021 13.6686,-124.168 62.1378,-47.982716 40.877,86.38703 42.2704,135.60556 4.5232,91.52495 0.7406,180.58658 -11.1762,270.59514 -12.892,61.60095 -4.7953,144.09453 49.0041,55.62597 30.1357,-21.8738 -15.5027,126.57406 -52.8887,99.62963 z M 1111.7321,519.04671 c -10.4137,-18.89382 15.4227,-1.26147 0,0 z M 20.96622,507.3689 C 29.084335,468.40743 28.751286,344.65288 77.415,370.63044 53.488673,403.06618 78.298359,503.78783 20.96622,507.3689 z M 1424.5238,236.33837 c -13.887,-48.95707 17.5594,-21.07839 0,0 z"
         id="path3079"
         style="fill:#919191" />
      <path
         d="m 342.58425,1196.005 c -44.68977,-34.0509 -87.13986,-91.4351 -79.10715,-149.2764 41.91181,19.5656 -19.98279,-44.2193 21.32216,-75.16157 39.95961,-83.31917 102.11027,-154.77045 139.27346,-238.75207 53.2384,-89.13756 -66.18419,-127.17199 -105.85275,-51.98655 -9.10018,35.16539 -1.4781,131.09048 -56.89636,85.27296 29.37371,-78.02157 42.18381,-158.99742 41.44635,-243.59633 -31.11518,-49.96846 65.31826,-148.25636 62.66789,-58 -8.27977,45.78365 -59.19887,141.41994 -25.50653,165.75 57.29027,-38.21058 66.00724,-123.63244 109.0207,-164.81446 75.40532,37.94421 -107.65417,134.85809 -31.6969,150.991 98.5417,-10.38093 26.24674,89.3894 14.6023,135.96277 -34.71584,68.43307 -85.85463,128.62452 -102.57129,204.62749 -33.27534,56.15896 -4.71224,132.87776 8.57129,192.92066 -3.52546,11.4806 32.19258,54.504 4.72683,46.0625 z m 615.17847,-85.7482 c -43.02652,-59.9605 -21.94829,-133.416 -34.9248,-201.45547 24.03534,-53.25426 63.72031,-167.70906 33.5556,-213.22819 -78.58085,50.1651 -68.64217,-25.3366 2.7238,-30.20352 35.68143,-49.3903 5.464,-126.7164 17.9651,-189.86458 9.74988,-73.84392 -3.3721,-148.00959 17.2888,-221.11134 5.91748,-56.08326 58.99788,-139.46704 121.58438,-93.38866 1.5828,70.01916 -4.0312,146.4182 -15.9177,216.49448 -3.4282,61.33954 -26.5522,153.84539 -8.048,194.43627 29.7244,10.50856 36.5627,-60.05595 36.1736,-83.85196 33.3801,-74.28169 107.8079,-44.44135 104.2159,29.25515 0.9077,69.34787 1.6757,131.37271 -56.6857,178.1034 -44.9529,54.00041 -73.0849,22.17636 -87.6139,-34.61141 -96.12942,-17.6574 -104.38644,76.8404 -102.37878,148.15669 -6.08534,82.50253 -35.78297,165.19508 -17.50585,248.74454 -10.26033,10.4558 5.37189,56.702 -10.43245,52.5246 z M 1150.699,689.56583 c -4.1143,-31.80722 -28.3408,21.03135 0,0 z m -2.4375,-29.21097 c 59.5969,-45.69215 55.1785,-126.12132 46.3482,-191.72319 -54.4354,32.33873 -51.8867,112.41291 -68.8065,169.33008 -1.7511,13.70691 1.9565,50.5739 22.4583,22.39311 z m -117.9044,-13.92985 c 69.0258,6.78918 73.6104,-60.22094 24.0542,-76.15638 -33.7416,-11.7455 -24.7343,-11.643 -11.9813,-59.4045 21.9277,-77.87911 7.6013,-161.50862 28.0505,-239.06966 19.181,-41.89318 3.952,-133.11803 -33.595,-52.04943 -17.6924,73.72435 -26.9492,153.11122 -23.4996,229.76 9.2914,59.29893 -46.41886,176.10837 16.9712,196.91997 l 0,0 z m 172.5556,-8.93959 c 50.5913,-43.7191 -44.9586,-15.7316 0,0 z m 16.0663,-74.05732 c 24.4533,-70.03917 -41.3709,-64.14165 -4.8527,2.3864 l 4.8527,-2.38637 0,-3e-5 z M 798.64452,980.75504 c -17.31493,-44.94627 -33.22134,-83.63152 -44.8343,-111.27899 -2.64517,-58.8123 20.56627,-123.49678 35.5469,-171.47101 71.55066,-36.86028 24.50197,-123.20522 -41.8402,-67.1549 -50.22583,16.8184 -51.17684,84.48492 -49.7045,136.69536 -88.36857,26.88285 4.27805,-110.7404 -11.3706,-159.75973 14.1076,-47.0463 -6.41237,-156.61226 -9.87215,-133.72142 54.67486,-13.0308 132.62097,-58.19169 178.07065,-5.33969 35.99648,51.91685 -60.62329,107.82829 -0.8878,159.30452 -12.80814,54.55975 -51.1503,131.70469 -60.78375,173.12381 26.22035,36.7918 24.9918,119.19094 13.39225,172.82785 l -5.4617,9.0242 -2.255,-2.25 2e-4,0 z m -64.7336,-381.38163 c 40.14522,-25.58325 90.34432,-58.04827 74.51199,-117.73672 -30.44606,-4.97452 -115.77441,19.85035 -90.56579,68.95191 8.98478,10.7724 -11.13335,63.31995 16.0538,48.78481 z m -921.5538,244.63163 c -76.57026,-28.73456 1.84149,-82.00564 6.02527,-132.73896 54.80314,-76.84271 -20.43635,-87.02127 -82.06563,-101.26104 -13.34161,-30.40587 26.4274,-47.80172 51.63347,-15.55948 94.43932,20.92149 77.60252,-78.94633 104.3405,-138.94052 16.954454,-91.93762 37.195165,-183.74512 34.96545,-277.60873 -13.893141,-39.23375 9.117769,-161.933376 35.10782,-69.89127 23.261428,59.76247 37.8412395,144.0593 0.1286,200.70031 -1.963133,58.67613 -31.502815,117.2947 -34.05558,178.79969 -1.308961,49.52644 -34.83033,149.79698 51.11335,90.215 17.174062,28.46498 -28.890028,69.17312 -63.203957,48.66055 -38.904683,52.83912 4.222128,173.81627 -76.416993,189.80172 -10.15506,5.70975 -11.73236,36.11358 -27.5723,27.82273 z m -184.94113,-4.5318 c -36.3179,-27.65435 -1.16274,-137.88647 58.53041,-113.4682 -15.66559,16.93622 49.47478,32.67156 -3.63911,48.87287 -12.83213,26.36165 -9.97779,68.42073 -54.8913,64.59533 z m 35.54684,-24.64144 c 14.57791,-24.07681 -30.8514,17.75096 0,0 z m -11.47108,-39.04459 c 5.45209,-24.44786 -9.42976,3.00005 0,0 z m 288.40846,42.94504 c 14.336299,-56.79637 44.4405,-124.01789 50.53299,-188.468 -1.867136,-16.36207 51.399753,-145.18187 44.01547,-54.43625 -15.557406,67.22677 4.386007,158.33451 -50.40918,204.67704 -22.633285,4.35052 -23.72879,38.57431 -44.13928,38.22721 z m 215.96574,-2.97721 C 96.469633,793.13566 130.93696,732.44331 155.85712,689.37614 179.03378,634.49 217.47799,582.74252 223.81551,523.46075 175.0808,543.42483 130.62863,605.2252 103.28608,655.80594 96.181276,698.57342 76.144144,786.30066 44.70289,792.31884 39.539335,717.72453 75.915422,644.01225 83.13774,569.38671 c 7.982655,-35.6554 15.289964,-146.7796 53.61877,-66.18898 -6.80651,107.60722 99.37959,-84.83606 113.9328,-11.69269 -9.82355,73.02672 -53.02948,139.31338 -55.25461,216.0596 -3.39355,31.40275 20.73914,133.0717 -39.56875,108.1904 z M -312.7561,793.38831 c 6.78384,-32.83736 21.02814,7.26093 0,0 z m 777.46572,-24.20792 c -25.70192,-23.93098 72.04206,-37.79778 37.5014,-88.67535 -15.46227,-68.22263 54.39909,-161.04734 -4.8615,-209.48766 24.33055,-77.34567 57.49531,-4.85874 98.0577,29.93136 39.84987,19.80845 66.22198,95.91999 11.5103,42.20979 -53.72093,-83.38234 -89.86957,71.61587 -29.727,73.84651 93.50428,9.81603 9.17557,49.30595 -30.4096,7.03888 -37.23159,46.14907 -44.60613,127.96821 33.03433,73.7691 78.62654,34.32263 -27.55903,41.48356 -63.20813,59.98263 -10.27302,12.40561 -37.95133,16.55106 -51.8975,11.38474 z m 875.64748,-53.29755 c -84.9266,5.91692 -123.436,-63.61649 -88.0347,-137.13304 13.0187,-47.73648 49.35,-196.81062 88.4647,-74.62663 28.8165,47.53023 56.4695,110.20814 36.07,164.84854 -14.0734,13.00281 -14.4752,47.2147 -36.5,46.91113 z m -21.4775,-26.23634 c 80.7507,-26.73198 9.0445,-112.79713 -4.0275,-164.37002 -50.1402,-3.34939 -44.1092,108.14056 -38.995,150.14562 11.6775,10.1104 27.0575,18.72169 43.0225,14.2244 z m 148.3865,15.19314 c -64.6911,-74.12017 -19.4115,-181.15387 -34.2244,-268.57783 -10.5343,-48.93354 -0.9612,-102.46929 -7.1301,-158.15822 34.3452,-23.58576 -21.2082,-153.29054 38.6341,-136.99413 41.6953,10.08251 8.1564,132.87844 18.7749,185.79928 8.1397,84.26292 -9.1468,164.68877 -12.0658,248.34236 -20.6747,74.93291 14.5645,95.07195 58.7992,26.23404 -3.9975,28.95732 -12.3898,116.08234 -62.7879,103.3545 z M 1112.9146,519.1124 c -15.901,-15.12407 13.7408,-12.84105 0,0 z M 21.85712,507.69722 c 10.653104,-44.17309 -0.5378,-138.60664 53.43259,-144.8946 -15.670308,39.8061 0.787883,133.23091 -53.43259,144.8946 z M 1424.3945,234.75504 c -13.8206,-59.79637 17.6746,-8.07555 0,0 z"
         id="path3077"
         style="fill:#6f6f6f" />
      <path
         d="m 344.12597,1196.4962 c -48.57184,-30.2391 -83.37171,-98.4715 -82.81737,-145.8285 47.83984,14.3547 -18.89341,-49.7875 27.91887,-86.33593 38.46838,-80.60419 99.4526,-148.79528 134.84766,-230.32673 62.6753,-106.28508 -100.24216,-126.57541 -114.66091,-28.68045 42.16981,52.48654 -70.19028,110.18073 -41.70878,35.93369 34.61946,-75.15811 34.44648,-160.54785 35.17971,-243.34676 -16.26526,-73.27272 102.20528,-96.79782 54.90842,-7.03424 -13.13511,35.00378 -64.77853,192.31475 10.29833,115.43357 38.15472,-29.67969 51.14874,-179.71107 101.40765,-119.77832 -17.09472,60.05887 -137.26327,143.4123 -12.4796,134.88161 30.75229,64.6554 -48.00422,157.52472 -78.7548,221.98775 -28.83243,56.53016 -67.53762,117.36324 -61.86713,180.99281 -6.84251,56.4905 31.84186,133.725 27.72795,172.1015 z m 615.05265,-84.7412 c -44.17938,-64.3691 -28.75068,-148.59231 -32.3215,-219.36738 30.99275,-49.59116 49.31144,-147.15099 35.30891,-197.9636 -30.81834,25.59403 -100.14917,22.11014 -43.80891,-14.39695 96.06138,-10.88119 42.43314,-120.22419 58.43711,-184.61875 15.13809,-69.70125 -10.96714,-138.66274 13.37489,-207.31786 3.85555,-58.86273 36.28618,-164.45797 115.18788,-133.53291 23.3758,59.62448 2.5534,151.98407 -6.1224,221.61777 -1.9558,65.81316 -28.6567,155.12111 -5.1905,200.80073 31.3298,-8.18205 34.3158,-64.30171 34.3278,-89.06408 38.5141,-81.45768 111.8869,-36.24123 103.722,38.59307 6.6911,76.22488 -13.6192,147.87443 -84.7376,187.49456 -52.0626,52.51499 -40.3613,-106.76169 -116.5193,-45.58975 -75.05204,47.38258 -26.7897,172.73669 -61.52848,251.52065 -16.86608,63.353 6.6508,134.698 -10.1299,191.8245 z M 1149.951,691.61868 c 3.4344,-39.2142 -29.1625,15.67077 0,0 z m -3.16,-29.11364 c 60.5645,-45.32845 56.0652,-121.82321 50.7749,-189.5 -56.584,12.99654 -60.2224,119.71529 -71.7167,176.2625 -10.1978,14.23071 15.8006,30.5501 20.9418,13.2375 z M 1030.6655,646.4753 c 64.8453,11.61981 79.2045,-65.34579 25.2598,-74.11685 -18.5049,-31.10483 -39.198,6.55139 -16.9687,-45.23053 21.4261,-78.79692 18.0504,-160.09738 25.3411,-240.9996 26.0793,-38.81237 14.9586,-158.29055 -27.9386,-65.10511 -13.924,70.29904 -29.4473,144.81298 -21.5501,217.48151 7.9714,63.53676 -45.61329,172.71311 8.2022,209.36665 l 7.6542,-1.39604 10e-5,-3e-5 z m 175.5214,-9.9944 c 34.0364,-52.66735 -44.2931,-0.20891 0,0 z m 11.4722,-71.87348 c 27.3224,-38.88149 -26.0118,-91.17716 -10.6792,-18.99511 1.1145,4.13348 -0.2036,25.50408 10.6792,18.99511 z M 798.57012,979.68984 c -19.51066,-64.28731 -44.56718,-88.39464 -41.6502,-149.26108 6.01648,-69.90901 26.22981,-123.89073 65.2834,-172.7508 25.886,-74.35085 -70.34393,-34.91141 -95.93159,-11.47783 -55.51491,16.1818 8.41791,128.1316 -56.74511,127.86082 -28.10336,-40.41105 33.60626,-135.53345 18.4668,-196.48 21.90119,-60.05898 -62.57067,-114.08881 34.2165,-117.57591 56.04883,-35.08769 181.40278,-11.30637 130.53689,71.88264 -54.85623,50.57287 43.25315,108.59652 -22.88999,160.37963 -29.10739,67.91066 -43.93919,106.82222 -18.3446,164.73773 0.93239,37.71322 9.1484,98.20751 -12.9421,122.6848 z m -63.2733,-380.623 c 37.94093,-25.08579 85.03142,-53.25246 75.2517,-110.72267 -18.32123,-23.08741 -113.79883,13.80785 -93.14237,52.57099 9.26814,13.75903 -12.668,73.86795 17.89067,58.15168 z m -923.4397,244.4382 c -77.62915,-32.05211 13.72961,-92.91489 13.04615,-150.5 73.73686,-88.34596 -108.93192,-50.5234 -87.04615,-100.45542 13.02775,-45.12095 129.58272,51.84078 127.83501,-41.64653 31.6902,-104.1833 51.474077,-211.70661 62.095176,-319.93321 8.781841,-47.8902 -27.392603,-165.533557 28.807354,-150.571379 18.316187,70.285999 48.286255,153.809679 9.69577,222.212619 -10.593812,52.94886 -27.610892,112.47778 -36.74225,169.89392 -2.458914,60.24233 -35.15331,164.80639 57.094259,106.50108 -3.754523,49.73613 -37.996727,54.13181 -72.540319,48.87144 -35.24702,50.5766 5.279875,168.11309 -68.64786,182.49271 -15.10097,5.81642 -13.952,40.04846 -33.59714,33.13477 z m -183.55887,-3.9682 c -35.55438,-27.35138 -3.15597,-136.69443 56.89543,-113.5318 2.33959,12.05351 -0.29216,19.28397 22.13385,32.25712 -47.90395,5.3094 -17.9855,84.05112 -79.02928,81.27468 z m 32.15852,-22.04355 c 28.91906,-25.60828 -34.86622,7.39934 0,0 z m -8.18458,-42.73825 c 3.31168,-26.08598 -10.62889,7.29397 0,0 z m 289.58493,44.54056 c 9.769644,-54.21914 43.438448,-123.99018 48.72077,-187.60527 -0.584841,-27.67414 59.295413,-151.83159 42.16889,-40.68529 -14.542338,63.64131 5.445908,152.06879 -53.23961,192 -19.53733,3.43401 -20.332039,33.64606 -37.65005,36.29056 z m 215,-3.79056 C 88.772265,790.11929 141.28649,722.46605 162.28653,675.21757 174.93212,639.88209 258.23312,519.76602 199.76373,529.6674 153.61787,584.34872 90.844885,637.46773 91.8435,713.73552 79.60232,744.50247 41.076017,847.38364 43.36957,759.50504 58.016326,680.5538 80.503086,604.38406 93.10732,525.05674 c -11.303519,-83.17609 61.11089,-41.99244 48.88611,15.04536 33.30802,-12.42888 128.31415,-123.95586 106.47276,-17.52889 -32.50736,70.27917 -58.31375,148.44822 -50.91134,226.62878 -5.41326,27.03929 6.9113,86.63275 -40.69773,66.30305 z m 309.3591,-45.42142 c -30.66335,-23.47265 71.86297,-38.01855 35.948,-88.07858 -15.17013,-68.16678 54.96985,-162.10274 -4.30403,-209.85293 28.20031,-97.42335 85.39567,38.30553 130.89434,64.24209 47.55961,86.20261 -96.85301,-90.16897 -76.25961,20.9847 -56.16457,81.25681 109.98616,41.21744 54.3734,93.62614 -55.9908,-67.51076 -105.11729,21.76333 -83.25874,67.76837 39.80598,-47.25006 135.21784,16.26446 45.59874,19.35138 -35.24722,8.78595 -65.9364,36.28148 -102.9921,31.95883 z m 875.19098,-54.21568 c -90.1667,5.89372 -122.5703,-68.90229 -87.5591,-144.3629 14.6596,-49.8085 50.0367,-181.18035 87.1272,-66.81329 38.4424,60.87824 63.4056,143.68805 13.2154,205.02871 l -6.8336,6.5872 -5.9499,-0.43972 0,0 z m -23.8154,-25.85318 c 82.6489,-18.30567 14.7014,-156.56811 -23.0908,-167.88913 -14.8764,43.4983 -58.6757,174.11615 23.0908,167.88913 z m 149.6848,13.82273 c -63.6833,-73.97688 -20.2574,-179.08686 -34.2336,-266.42178 -9.9831,-44.71056 -1.7022,-92.71622 -5.7132,-144.3727 21.2985,-43.06968 -6.2234,-113.80746 21.2885,-159.93984 72.9373,3.19513 17.9461,136.20638 34.9489,196.86125 7.0847,86.68532 -10.6989,169.53601 -13.1036,255.70223 -22.0131,62.46652 15.5142,87.82931 46.5825,25.54957 35.1081,-35.39345 -10.7036,126.35619 -49.7695,92.62127 z m -355.691,-186.23193 c -7.3653,-16.67255 14.0534,1.39382 0,0 z M 23.3224,508.05352 C 25.078879,469.82891 28.185605,358.48625 76.50033,367.60829 54.798881,406.15615 77.279495,493.02701 23.3224,508.05352 z M 1424.5238,234.33837 c -13.244,-46.99725 15.6771,-16.75177 0,0 z"
         id="path3075"
         style="fill:#515151" />
      <path
         d="m 342.85712,1195.005 c -41.7055,-32.4497 -87.60683,-88.0687 -75.39006,-142.9296 36.95281,3.2786 -22.89409,-55.39979 23.39006,-89.41758 38.22041,-80.33395 99.24868,-148.53084 134.2156,-229.84326 53.71743,-89.33282 -67.47683,-129.40343 -107.43036,-52.94349 -11.68596,34.22479 1.0538,129.61712 -55.32432,86.28972 29.75277,-79.14255 42.47295,-161.55177 41.30707,-247.28687 -32.05069,-58.03998 80.01392,-140.41416 57.23575,-44.64305 -6.34483,35.12443 -71.26014,186.90149 -2.78947,142.27417 51.03323,-31.50566 48.9394,-164.39104 109.80003,-138.32156 5.48289,50.67098 -86.07294,100.10253 -68.4701,137.73979 111.89827,-18.97021 52.05109,81.71565 31.4558,136.47109 -34.90815,68.63197 -86.29296,128.65785 -102.57128,204.62749 -33.13686,56.26685 -4.77968,132.90635 8.57126,192.92075 -3.5588,11.5542 30.5467,51.4034 6.00002,45.0624 z m 616,-84.3651 C 915.8589,1050.5154 937.2183,976.95105 923.85231,908.87132 c 30.19802,-56.1797 52.49864,-153.44499 40.03871,-214.85816 -33.46654,22.4065 -104.48798,22.36458 -41.0339,-15.82862 91.58148,-8.28182 37.06792,-111.50169 54.85266,-169.50899 15.13362,-79.45373 -11.64328,-159.46189 17.92505,-236.90065 -5.56982,-60.33233 55.98307,-160.70492 121.31077,-107.63454 -5.8406,73.34245 -3.5369,149.64854 -19.4314,221.65423 2.005,56.82064 -30.7969,142.76966 -4.1571,180.80241 17.6584,33.19246 29.9253,-44.01431 39.6268,-69.31874 -4.8279,-49.00468 92.8757,-84.49076 89.2852,-10.04302 15.0037,68.30021 17.6964,145.29801 -36.2757,195.89436 -52.8489,72.52433 -77.6668,24.00125 -108.3185,-23.98908 -94.97944,-11.22898 -88.77861,84.2589 -92.82208,150.34908 -9.27691,84.57943 -32.38989,170.58857 -19.6109,256.136 -6.57056,9.1538 5.13489,44.825 -6.3848,45.0143 z M 1151.1477,690.67953 c -0.3879,-32.38851 -29.2738,17.52632 0,0 l 0,0 z m -2.5406,-29.60499 c 47.6782,-25.05284 63.9576,-144.355 56.1169,-125.73547 17.7886,95.85596 28.3735,-82.49032 -4.9921,-13.40234 8.1963,-123.55244 -71.46,27.49007 -66.4203,74.72408 -3.4752,16.22269 -23.4688,100.05674 15.2955,64.41373 z m -118.25,-13.65872 c 58.0778,16.10118 86.4204,-65.36748 29.4964,-68.41078 -17.5228,-42.25878 -43.9026,1.99741 -19.9109,-52.51933 20.8603,-74.21308 16.9464,-151.28937 24.567,-226.98067 19.7208,-40.30685 24.0566,-172.95069 -28.6241,-79.76 -19.3427,77.68469 -25.3027,160.30815 -25.0284,240.26 10.8555,47.76618 -46.63355,186.28801 19.5,187.41078 z m 174.9446,-9.82714 c 45.4312,-53.20934 -52.6733,-5.36105 0,0 z M 261.85712,1048.8903 c 2.7606,-5.7469 4.02533,5.2745 0,0 z m 537.2998,-69.09236 c -11.48625,-42.77266 -36.55117,-74.82356 -36.558,-103.9945 -24.33904,-52.45486 18.69081,-121.15701 23.6418,-177.51533 58.45176,-8.33021 51.00605,-122.25709 -10.4383,-76.63929 -65.92881,8.7543 -85.26043,68.6686 -79.24907,135.16848 -68.25056,58.38719 -14.18036,-79.59017 -11.91223,-122.05052 24.93254,-57.09287 -21.8235,-138.05387 -0.3575,-164.82393 56.85431,-7.43668 137.99422,-58.21455 176.4229,9.06219 7.60733,53.93778 -60.12103,105.61031 -5.90539,157.8581 -29.52961,53.09751 -45.37889,130.37545 -65.54964,171.37026 38.96554,36.92417 26.86404,127.90509 9.90543,171.56454 l 0,0 z m -64.9645,-379.43381 c 36.34575,-26.01091 86.4264,-50.69344 77.1647,-108.03613 -17.0251,-36.12157 -93.80917,11.00397 -99.9667,39.28233 18.47487,12.17064 -9.38975,82.91647 22.802,68.7538 z m -921.8353,242.64091 c -72.76929,-27.00053 -1.42376,-75.99828 4.92345,-123.5 38.65402,-62.95124 14.89226,-101.98389 -58.92345,-102.51235 -59.88784,-7.83746 2.04158,-68.20743 29.59311,-21.54713 96.51406,20.49465 81.4856,-84.95451 106.28423,-147.69471 18.024254,-89.54685 35.178905,-179.57902 34.45672,-271.24581 -15.96881,-38.67178 10.33545,-157.24428 32.77095,-68.5 20.990655,60.16509 39.7319909,144.69499 -0.64525,200.74076 0.959794,54.36624 -27.510616,107.23154 -31.87922,163.25924 -2.253807,54.98802 -38.73362,171.11393 55.61649,104 0.321765,43.20108 -33.836596,68.65594 -68.718546,49.83037 -38.415714,55.5755 2.184804,172.77157 -78.228484,191.57043 -8.71486,5.83217 -10.71344,34.14112 -25.25,25.5992 z m -184.94113,-4.5318 c -34.00065,-27.42896 -0.70704,-136.04592 58.44113,-111.44257 -17.44669,18.78097 49.79565,28.66341 -4.57294,47.80093 -13.1856,25.53019 -8.80973,67.56985 -53.86819,63.64164 z m 33.2475,-20.36936 c 33.99719,-31.21114 -41.55197,8.06119 0,0 z m -8.07105,-43.1077 c 4.30563,-28.7992 -14.48227,11.43253 0,0 z m 287.65944,43.03125 c 15.951217,-52.24535 40.242816,-113.84296 49.344811,-172.81171 1.7366702,-25.82535 68.976445,-84.91761 46.501079,-96.70421 -6.847951,76.66627 -11.623954,148.67826 -33.18378,221.92501 -29.15111,4.76392 -41.547938,38.36953 -62.66211,47.59091 z m 216.60524,-3.02239 c -55.40992,-20.06817 -29.72062,-78.37565 -2.5,-119 23.09757,-57.13929 60.44834,-109.09458 72.05195,-170.07441 -48.36379,2.77519 -87.82818,78.40543 -120.55195,119.99783 -7.802801,53.6452 -28.407742,100.10111 -49.03719,150.87247 -32.629358,-38.28068 11.805869,-128.83065 21.62343,-184.50321 4.002075,-40.85797 23.55671,-203.55893 58.0868,-98.1412 2.47858,87.43328 135.19702,-125.90088 111.98346,4.81459 -30.8855,71.39086 -59.62321,149.6628 -51.7005,228.51687 -6.65595,27.41497 8.5424,88.40942 -39.956,67.51706 z m 307.7208,-46.94025 c -21.084,-22.5216 72.19485,-37.75989 38.6331,-87.55975 -15.4353,-66.57857 53.22083,-159.81677 -3.7969,-206.43699 22.6373,-100.58872 88.72679,41.02619 134.7067,67.79261 26.65171,71.73135 -100.89224,-94.50087 -82.5491,15.44476 -40.52203,67.30321 80.62339,101.20032 69.2854,77.40152 -26.1042,36.05731 -93.44096,-52.20558 -95.5802,32.25607 -41.22684,83.15864 32.88696,23.74999 63.497,41.2824 67.39564,27.40733 -64.345,29.32872 -80.8456,56.40241 -13.29734,0.69999 -31.09949,10.76996 -43.3504,3.41697 z m 875.80118,-53.19195 c -100.3334,8.35353 -117.0863,-82.89579 -81.9981,-158.3678 13.7361,-49.88097 50.1387,-160.50218 81.4061,-52.38187 28.6756,47.4398 56.5561,110.00764 36.07,164.46146 -14.0608,12.63165 -13.7773,46.84363 -35.478,46.28821 z m -21.4523,-24.22678 c 81.8442,-28.96333 10.0397,-119.49317 -7.8847,-171.88077 -43.9114,20.98794 -55.633,127.70177 -23.6902,166.05835 9.5259,6.00729 20.4533,8.69869 31.5749,5.82242 z m 148.8415,13.69698 c -64.8549,-66.4887 -14.5522,-163.67165 -37.0417,-242.88465 -3.0504,-52.14223 2.0003,-90.56878 -4.2164,-146.34692 13.3634,-54.0512 4.9755,-110.25395 15.8765,-170.66617 57.2052,-42.76314 36.6727,72.2975 41.2071,117.44463 -1.1892,81.44935 1.6556,162.28512 -6.7558,242.1923 -11.7292,54.61475 -27.8654,219.67258 46.411,102.56937 13.4473,4.72942 -9.6863,113.33917 -55.4807,97.69144 z m -355.712,-187.37288 c -7.3696,-18.66223 17.1742,2.28867 0,0 z M 21.99498,506.93239 c 12.45783,-43.79655 0.0316,-134.8038 52.57199,-143.7801 -16.407943,39.26552 0.76849,131.37603 -52.57199,143.7801 z M 1424.6784,225.15048 c -5.6992,-43.74964 9.6798,24.34548 0,0 z"
         id="path3073"
         style="fill:#2c2c2c" />
      <path
         d="m 344.38697,1195.0533 c -42.45859,-31.0403 -86.35133,-87.9122 -76.46915,-141.4763 42.52914,4.8328 -26.42139,-51.0046 18.4393,-81.57196 39.97746,-83.31408 102.11099,-154.44218 139.5031,-238.35155 52.19722,-88.10162 -64.65793,-131.55547 -107.68623,-56.41934 -13.32663,33.15998 -0.89129,130.22925 -54.84051,88.93845 29.79125,-74.53672 41.3176,-152.88287 40.42699,-233.66756 -28.3055,-44.96167 53.45291,-157.68384 60.8303,-70.89823 -8.49946,49.57214 -62.75152,143.11236 -24.50204,170.57236 68.10189,-23.9706 59.9902,-176.47079 126.775,-154.00639 11.25447,51.76406 -128.99708,133.77055 -40.45811,139.89236 96.49898,13.99592 -13.12503,139.0134 -29.83869,193.53241 -37.93423,57.48607 -69.84083,122.77039 -83.77265,188.10129 -1.79706,65.86526 23.07415,145.90526 31.59269,195.35446 z m 614.53795,-86.3699 c -41.83484,-58.9992 -22.21386,-131.50673 -33.98607,-198.35112 28.35401,-56.98951 53.08162,-154.71109 39.72717,-216.79143 -35.70604,25.46752 -105.24519,19.93485 -38.6171,-15.54922 92.97028,-16.42637 32.53486,-134.91076 52.8618,-200.65385 6.80198,-77.32736 -1.84504,-154.22345 18.3011,-230.6671 -1.69276,-58.01007 90.02788,-143.57345 120.68148,-66.99323 -10.234,85.53266 -11.1251,171.13295 -26.0246,256.32759 -3.1583,44.37123 -25.0368,135.66166 10.672,138.4001 38.0794,-21.4961 10.5767,-88.5935 50.8884,-110.46609 64.2255,-68.99501 88.0106,63.80903 74.544,109.2837 16.0698,71.01221 -53.9992,118.77501 -101.6157,156.73154 -25.8215,-43.23582 -40.6066,-98.38093 -107.0709,-60.16384 -55.92113,57.15596 -18.0209,159.52692 -50.00318,233.71459 -16.31412,67.2852 2.15876,147.09906 -10.3584,205.17836 z M 1142.31,669.43653 c 67.6698,-56.95501 61.3093,-119.76415 59.0071,-176.5496 -26.0352,-69.9189 -68.3973,79.7813 -71.0004,114.32525 -1.4805,17.39998 -20.2308,69.91025 11.9933,62.22435 z M 1029.0372,648.5631 c 64.648,10.91996 85.338,-65.18228 28.3199,-76.22985 -25.5995,-29.46465 -32.8262,-1.7597 -14.522,-54.45609 19.0527,-71.53807 15.1936,-146.21566 22.6643,-219.22936 21.3416,-41.8705 22.048,-173.10871 -30.2259,-79.10004 -19.7114,78.03829 -25.6008,161.1949 -25.4164,241.51305 11.7079,48.01632 -46.34162,183.35982 19.1801,187.50229 z M 799.37832,978.67764 c -21.29351,-59.37955 -37.97953,-84.04352 -42.9059,-135.83988 8.72325,-58.21854 16.12627,-126.6859 54.5076,-162.42392 60.10658,-62.80127 -31.72994,-92.09075 -68.1049,-44.6588 -65.76635,2.18136 -24.20896,116.48583 -61.5929,130.45998 -55.86279,13.728 17.11993,-106.1007 6.1362,-144.70998 12.29805,-49.1042 -16.71105,-169.77985 -11.2548,-145.05852 58.12344,-18.69877 165.09248,-66.88777 189.1937,18.55821 -39.24392,54.38467 -29.12086,96.60269 -13.6007,151.78782 -33.59635,48.14685 -43.78434,122.36861 -63.26488,161.34997 39.33169,32.04522 24.91888,128.97751 10.88658,170.53512 l 0,0 z m -64.0212,-378.21436 c 40.80471,-24.73954 89.464,-57.66819 75.5822,-117.78224 -37.76868,-10.9562 -127.34988,23.14166 -93.3322,83.0755 3.41805,11.51481 -8.22961,50.64285 17.75,34.70674 z m -924,241.54176 c -73.69198,-32.65729 16.909,-97.38668 18.50416,-154.30029 63.31477,-83.85005 -113.00716,-47.55656 -91.00416,-94.30042 14.89017,-39.69623 97.89297,40.39827 124.84695,-19.64006 18.28766,-90.51756 49.917223,-178.76969 55.347726,-271.76447 24.16348,-66.02998 -6.788016,-146.6847 15.589284,-203.276219 14.728619,-72.91787 49.179436,104.792499 45.11103,77.605689 15.9508617,68.19237 -18.129745,122.32041 -27.89499,182.98378 -23.630344,73.08882 -22.813995,149.82602 -36.55066,224.19382 18.827839,43.46667 94.0616844,-43.92766 60.24164,31.51492 -29.095153,37.30425 -75.83065,-22.39727 -76.67448,52.98325 0.71271,74.4628 -19.79691,140.52791 -81.11289,175.9225 l -6.40361,-1.9225 0,0 z m -184.5,-4.52083 c -30.27376,-28.07891 -0.70047,-131.28551 57.1942,-110.49104 -7.4012,20.17299 47.85768,30.60124 -8.86985,54.52749 -27.27565,50.57469 -13.06279,24.56829 -17.83537,45.57023 -7.21011,8.04323 -19.73574,13.45726 -30.48898,10.39332 z m 25.23724,-60.22917 c 11.73111,-25.41702 -17.81895,-2.4214 0,0 z m 288.13839,39.98469 c 22.162147,-56.87927 43.108379,-123.0885 51.62437,-187.22214 6.4557689,-29.74586 54.450692,-142.73568 39.26003,-38.55093 -15.804025,64.07615 8.299958,161.97373 -60.752955,196.13886 -16.206929,3.43699 -12.249353,32.31452 -30.131445,29.63421 z m 216.78179,-3.23469 c -59.08256,-21.35875 -23.26941,-82.84808 0.84632,-125.16761 14.01843,-48.26125 91.25791,-136.94034 52.53162,-167.99573 -42.98404,46.34144 -100.55417,91.17279 -114.53536,156.45459 4.97703,41.17528 -66.456709,181.43023 -46.95539,68.20875 12.556928,-82.83748 40.546982,-161.12727 48.775365,-244.73145 29.492985,-90.46741 32.642795,105.71298 81.680025,15.22556 38.64949,-51.60113 101.02169,-50.91557 59.96818,24.00589 -35.61159,73.26467 -48.40398,156.06851 -45.93965,236.57028 1.91279,27.51856 -5.25245,50.38412 -36.37111,37.42972 z m -487.15742,-2.44098 c 1.77691,-6.78707 3.09158,5.40584 0,0 z m 799.7458,-41.62355 c -32.08559,-21.10713 69.35126,-40.18316 34.5515,-89.93547 -12.45011,-67.88301 49.55578,-164.14022 -2.7973,-209.41064 26.91966,-92.18199 90.98004,50.91956 136.0092,77.42848 10.128,51.60314 -100.34667,-96.58638 -86.4257,6.54031 -29.26627,57.64733 28.95234,70.21886 72.3759,73.56972 -25.47671,47.77942 -103.18906,-49.10869 -99.9594,45.87213 -50.26284,95.02885 89.99143,-14.53957 83.3397,55.41989 -48.71178,-0.42036 -88.44561,39.08076 -137.0939,40.51558 z M 1340.8571,714.2812 c -99.9472,7.96352 -113.2519,-81.56965 -81.9208,-156.59334 15.6519,-40.5436 41.2841,-158.07461 76.3785,-63.18282 28.2003,56.37358 72.2883,132.42565 28.782,192.09996 -7.1579,8.9907 -7.3986,32.2274 -23.2397,27.6762 z m -22.4813,-22.78501 c 82.3513,-24.04072 15.703,-145.17717 -20.4618,-173.92085 -22.4749,40.536 -64.546,181.19506 20.4618,173.92085 z m 149.8195,12.25885 c -63.575,-69.8971 -16.3471,-170.39969 -35.3742,-253.03792 -5.4178,-51.02251 3.846,-72.23171 -4.5476,-127.21208 8.2488,-53.43638 7.1638,-104.43987 12.1459,-163.15113 36.981,-77.661418 53.0216,46.71773 42.2278,93.60914 -1.9362,84.06917 2.7876,167.75195 -6.6127,250.0945 -4.0515,39.27344 -33.2934,207.0879 31.0795,119.0691 49.3978,-73.70363 3.4971,109.56716 -38.9187,80.62839 z m -356.127,-187.59828 c -2.1026,-11.92933 7.2485,2.92784 0,0 z M 21.92813,506.07009 C 34.180507,467.56253 28.077621,351.24489 75.014482,370.74773 52.146778,403.00296 75.668894,498.00408 21.92813,506.07009 z M 1425.8571,226.68906 c -3.5026,-27.1177 6.4871,12.43093 0,0 z m -2.4688,-12.97715 c -2.7267,-6.37036 3.8802,1.40087 0,0 z"
         id="path3071"
         style="fill:#010101" />
    </g>
  </g>
</svg>
